<svg width="200" height="106" viewBox="0 0 200 106" fill="none" xmlns="http://www.w3.org/2000/svg">
<g id="Frame 1">
<g id="Group 1">
<path id="Gemini_Generated_Image_j6j64nj6j64nj6j6 1 (Traced)" fill-rule="evenodd" clip-rule="evenodd" d="M61.4231 0.261688C49.9942 0.424546 48.5271 0.502674 45.8938 1.0898C36.2099 3.24843 29.1681 7.3301 23.5895 14.0178C20.542 17.6713 17.3329 23.4489 16.9212 26.0234L16.7367 27.1763L19.0398 28.1141C24.875 30.4905 29.1449 35.0656 31.5168 41.4826C33.3623 46.4753 33.7229 48.3013 33.7553 52.8156L33.7866 57.1726L39.6414 57.3228C42.8616 57.4054 72.6432 57.4301 105.823 57.3778L166.15 57.2822V53.7519C166.15 48.3389 167.294 43.3056 169.616 38.4949C171.769 34.0377 176.391 29.8544 181.19 28.0206L183.332 27.2021L183.129 26.112C182.601 23.2779 179.464 17.4991 176.364 13.6494C172.387 8.7102 166.162 4.59787 159.233 2.33408C155.485 1.10933 152.726 0.593112 148.011 0.235545C143.705 -0.0913738 84.9709 -0.073644 61.4231 0.261688ZM9.28497 31.5942C5.04421 32.7615 2.09382 35.6807 0.557019 40.2296C0.0185088 41.8233 -0.0686352 42.6328 0.0419517 45.0033C0.267333 49.8208 1.20101 51.4914 5.85768 55.4075L7.33167 56.647L7.51378 66.5252C7.68657 75.8862 7.73675 76.5566 8.4745 79.3378C9.42681 82.9276 10.3902 84.7491 12.6152 87.1664C14.5796 89.3004 16.9038 90.795 19.935 91.8737L22.0566 92.6288L98.9866 92.7165C169.768 92.7974 176.085 92.7646 178.02 92.3061C182.804 91.1733 186.307 88.923 188.558 85.5376C191.716 80.7873 192.29 77.7543 192.293 65.7962C192.295 56.3652 192.241 56.5938 194.921 54.5208C197.206 52.754 197.803 52.0759 198.767 50.1507C199.983 47.7211 200.3 45.0688 199.717 42.2082C198.711 37.2765 196.835 34.5413 193.219 32.7315C190.293 31.2673 188.185 30.9635 185.232 31.5807C179.783 32.7201 175.829 35.8135 173.087 41.0832C171.163 44.7803 170.657 47.0756 170.396 53.2664C170.148 59.1359 169.888 60.1344 168.336 61.1512C167.572 61.6518 163.961 61.6797 100.352 61.6797C35.147 61.6797 33.142 61.6632 32.0352 61.1133C31.4081 60.8017 30.6989 60.1674 30.4591 59.7038C29.9203 58.6617 29.5329 55.8754 29.2724 51.163C29.0151 46.5138 28.4865 44.2452 26.9275 41.0971C23.5089 34.1942 15.504 29.8824 9.28497 31.5942ZM28.1752 101.167C27.5814 101.648 27.4732 101.994 27.5117 103.289C27.5931 106.017 27.5444 106 35.3084 106C41.8892 106 42.0145 105.988 42.474 105.332C43.1663 104.344 43.0891 101.941 42.3408 101.192C41.7774 100.629 41.3393 100.591 35.3123 100.591C29.4286 100.591 28.8246 100.64 28.1752 101.167ZM157.736 101.192C157.01 101.918 156.905 104.368 157.561 105.267C157.957 105.809 158.459 105.856 164.698 105.939C172.283 106.041 172.395 106.013 172.67 103.967C172.877 102.425 172.341 101.011 171.459 100.774C171.101 100.678 168.002 100.598 164.572 100.596C158.734 100.592 158.298 100.63 157.736 101.192Z" fill="#832C18"/>
</g>
</g>
</svg>
